<svg viewBox="0 0 362 212" fill="none" xmlns="http://www.w3.org/2000/svg">
<path fill-rule="evenodd" clip-rule="evenodd" d="M0.299805 22.1C0.299805 22.1 12.2998 14.9 18.0998 12.2C23.8998 9.50001 29.5998 7.30002 34.9998 5.60002L38.7998 4.4C40.0665 4.06667 41.3665 3.73334 42.6998 3.4C43.9665 3.06667 45.2665 2.76668 46.5998 2.50001C47.8665 2.23334 49.1665 1.96667 50.4998 1.70001C55.4998 0.900007 60.0998 0.400007 64.4998 0.200007C68.7998 0.100007 72.7998 0.200016 76.4998 0.600016C80.1998 1.00002 83.4998 1.70001 86.3998 2.50001C89.1998 3.30001 91.6998 4.30001 93.6998 5.30001C94.2998 5.60001 95.0998 6.00001 95.9998 6.70001C96.9998 7.30001 98.0998 8.10002 99.2998 9.10002L100.3 9.9C100.633 10.1667 100.933 10.4667 101.2 10.8C101.533 11.0667 101.866 11.3667 102.2 11.7L103.1 12.6L104.1 13.8L105.1 15C105.366 15.4 105.666 15.8 106 16.2C106.266 16.6667 106.566 17.1 106.9 17.5C107.166 18.0333 107.466 18.5333 107.8 19C108.066 19.5333 108.366 20.0667 108.7 20.6L109.5 22.2C109.7 22.7333 109.933 23.2667 110.2 23.8C110.466 24.4667 110.7 25.1333 110.9 25.8C111.166 26.4 111.4 27.0333 111.6 27.7C111.8 28.3667 111.966 29.0333 112.1 29.7C112.3 30.3667 112.466 31.0333 112.6 31.7C113.2 34.6 113.5 37.8 113.6 41.3C113.6 44.8 113.3 48.6 112.7 52.7L111.4 60.7L110.2 68.6L109 76.5L107.7 84.4L106.5 92.4L105.2 100.3L104 108.2L102.7 116.1C102.633 116.9 102.533 117.7 102.4 118.5C102.333 119.3 102.233 120.1 102.1 120.9L101.9 123.3L101.7 125.7C101.433 128.7 101.266 131.467 101.2 134C101.2 136.6 101.3 139 101.5 141.2C101.766 143.333 102.133 145.3 102.6 147.1C103.066 148.833 103.666 150.367 104.4 151.7C105.2 153.033 106.133 154.133 107.2 155C107.4 155.2 107.666 155.4 108 155.6C108.266 155.8 108.566 156 108.9 156.2C109.166 156.333 109.466 156.467 109.8 156.6C110.133 156.8 110.466 156.933 110.8 157C112.133 157.467 113.633 157.7 115.3 157.7C116.766 157.7 118.366 157.467 120.1 157C121.9 156.5 123.7 155.7 125.6 154.7C127.5 153.6 129.5 152.2 131.5 150.5C133.5 148.8 135.5 146.8 137.4 144.4C139.4 142 141.3 139.2 143.1 135.9C144.9 132.7 146.6 129.067 148.2 125C149.733 120.933 151.133 116.367 152.4 111.3C153.6 106.3 154.7 100.8 155.4 94.7L156.8 84.2L158.2 73.7L159.5 63.2L160.9 52.7L162.2 42.2L163.6 31.7L165 21.2L166.3 10.7H227L225.2 24.2L223.5 37.7L221.8 51.2L220.1 64.6L218.3 78.1L216.6 91.6L214.9 105.1L213.2 118.5C212.733 122.1 212.366 125.433 212.1 128.5C211.9 131.5 211.8 134.267 211.8 136.8C211.8 139.267 211.9 141.5 212.1 143.5C212.366 145.567 212.733 147.367 213.2 148.9C213.666 150.433 214.266 151.767 215 152.9C215.733 153.967 216.6 154.867 217.6 155.6C217.8 155.8 218.033 155.967 218.3 156.1C218.566 156.3 218.833 156.467 219.1 156.6C219.433 156.733 219.733 156.833 220 156.9C220.266 157.033 220.566 157.133 220.9 157.2C222.1 157.533 223.433 157.7 224.9 157.7C226.5 157.7 228.4 157.4 230.3 156.9C232.2 156.3 234.2 155.4 236.2 154.1C238.2 152.8 240.3 151.2 242.4 149.1C244.5 147 246.6 144.6 248.7 141.6C250.8 138.6 252.8 135.2 254.8 131.2C256.8 127.2 258.6 122.7 260.4 117.7C262.2 112.6 263.8 106.9 265.3 100.6C266.8 94.3 268.1 87.4 269.2 79.8C269.333 79.0667 269.433 78.3 269.5 77.5C269.633 76.7667 269.733 76.0333 269.8 75.3C269.933 74.5 270.033 73.7333 270.1 73C270.233 72.2667 270.333 71.5 270.4 70.7C270.733 67.7667 271 64.9 271.2 62.1C271.4 59.3 271.566 56.5333 271.7 53.8C271.766 51.0667 271.8 48.3334 271.8 45.6V41.5C271.733 40.8333 271.7 40.1333 271.7 39.4C271.7 38.7333 271.666 38.0667 271.6 37.4C271.6 36.6667 271.566 35.9667 271.5 35.3C271.5 34.5667 271.466 33.8667 271.4 33.2C271.4 32.4667 271.366 31.7333 271.3 31C271.233 30.3333 271.166 29.6333 271.1 28.9C270.9 26.0333 270.633 23.1 270.3 20.1C270.233 19.3 270.166 18.5333 270.1 17.8C269.966 17 269.866 16.2 269.8 15.4C269.666 14.6667 269.566 13.9 269.5 13.1C269.433 12.3 269.333 11.5 269.2 10.7H332.4C332.6 11.9 332.7 13.5 332.8 15.7C333 17.8 333.1 20.4 333.3 23.3C333.6 26.2 333.9 29.5 334.3 33C334.433 33.8667 334.566 34.7667 334.7 35.7L335.1 38.5C335.3 39.4333 335.466 40.3333 335.6 41.2L336.2 44C337 47.8 338.1 51.7 339.4 55.6C340.8 59.6 342.4 63.5 344.5 67.3C346.5 71.1 348.9 74.8 351.8 78.2L354 80.8C354.8 81.6667 355.633 82.5 356.5 83.3C357.3 84.1 358.133 84.8667 359 85.6C359.866 86.3333 360.766 87.0333 361.7 87.7L360.2 99.4L358.6 111L357.1 122.6L355.5 134.2C353.566 133.467 351.633 132.633 349.7 131.7C347.833 130.767 346 129.733 344.2 128.6C342.333 127.533 340.566 126.367 338.9 125.1C337.166 123.9 335.5 122.6 333.9 121.2L332.3 119.8L330.7 118.4C330.233 117.867 329.733 117.367 329.2 116.9C328.733 116.367 328.233 115.867 327.7 115.4C325.5 124.3 322.8 132.5 319.7 140C316.6 147.6 313.1 154.4 309.2 160.6C305.3 166.8 301.2 172.3 296.7 177.3C295.566 178.5 294.433 179.667 293.3 180.8C292.166 181.933 291 183.067 289.8 184.2L286.2 187.4L282.4 190.4C281.133 191.333 279.866 192.233 278.6 193.1C277.333 193.967 276.066 194.8 274.8 195.6C273.466 196.467 272.133 197.267 270.8 198C269.466 198.733 268.1 199.433 266.7 200.1C265.366 200.833 264 201.5 262.6 202.1C261.2 202.7 259.8 203.267 258.4 203.8C257 204.4 255.6 204.933 254.2 205.4C252.8 205.867 251.366 206.333 249.9 206.8C244.2 208.5 238.3 209.8 232.4 210.6C230.933 210.8 229.433 210.967 227.9 211.1C226.433 211.3 224.933 211.433 223.4 211.5C221.933 211.633 220.433 211.7 218.9 211.7C217.433 211.767 215.933 211.8 214.4 211.8C210.333 211.8 206.5 211.567 202.9 211.1C199.233 210.633 195.833 209.967 192.7 209.1C191.9 208.9 191.133 208.7 190.4 208.5L188.2 207.7C187.4 207.433 186.633 207.167 185.9 206.9C185.233 206.633 184.533 206.333 183.8 206L181.8 205C181.133 204.667 180.5 204.333 179.9 204C179.233 203.667 178.6 203.3 178 202.9L176.2 201.7C175.6 201.3 175.033 200.9 174.5 200.5C173.966 200.1 173.433 199.667 172.9 199.2C172.366 198.8 171.833 198.367 171.3 197.9C170.766 197.433 170.266 196.967 169.8 196.5C169.333 196.033 168.866 195.533 168.4 195C167.933 194.533 167.5 194.033 167.1 193.5C166.7 193.033 166.266 192.533 165.8 192C165.4 191.467 165.033 190.933 164.7 190.4C164.3 189.8 163.933 189.233 163.6 188.7C163.2 188.167 162.833 187.6 162.5 187C162.233 186.4 161.933 185.8 161.6 185.2C161.266 184.667 160.966 184.1 160.7 183.5C160.433 182.833 160.166 182.2 159.9 181.6C159.633 181 159.4 180.367 159.2 179.7C158.933 179.1 158.7 178.467 158.5 177.8C158.3 177.2 158.133 176.567 158 175.9C154.8 180.6 151.5 184.7 148 188.2C147.133 189.067 146.266 189.9 145.4 190.7C144.533 191.5 143.666 192.267 142.8 193C141.933 193.8 141.033 194.533 140.1 195.2C139.166 195.933 138.2 196.633 137.2 197.3C136.333 197.967 135.466 198.567 134.6 199.1C133.733 199.7 132.833 200.267 131.9 200.8C130.966 201.333 130.033 201.833 129.1 202.3C128.166 202.833 127.233 203.333 126.3 203.8C125.5 204.2 124.666 204.567 123.8 204.9C122.933 205.3 122.066 205.667 121.2 206L118.6 207C117.733 207.333 116.866 207.633 116 207.9C115.2 208.167 114.433 208.4 113.7 208.6C112.9 208.867 112.133 209.1 111.4 209.3C110.6 209.5 109.833 209.667 109.1 209.8C108.3 210 107.533 210.167 106.8 210.3C106.2 210.433 105.566 210.567 104.9 210.7C104.3 210.833 103.7 210.933 103.1 211C102.5 211.067 101.866 211.167 101.2 211.3L99.3998 211.5C97.2998 211.7 95.5998 211.8 94.4998 211.8H92.6998C87.2998 211.8 82.2665 211.3 77.5998 210.3C72.9998 209.3 68.7665 207.8 64.8998 205.8C63.9665 205.333 63.0665 204.833 62.1998 204.3C61.2665 203.767 60.3665 203.2 59.4998 202.6C58.6331 202 57.7998 201.367 56.9998 200.7L54.5998 198.7C51.5998 195.9 48.9665 192.667 46.6998 189C44.4331 185.4 42.5665 181.467 41.0998 177.2C39.6331 172.867 38.5665 168.233 37.8998 163.3C37.2331 158.3 36.9331 153.067 36.9998 147.6C37.0665 142.067 37.4998 136.3 38.2998 130.3L39.5998 122.1L40.9998 113.9L42.2998 105.7L43.5998 97.5L44.8998 89.3L46.1998 81.1L47.4998 72.9L48.7998 64.7C48.8665 63.2333 48.7665 61.9333 48.4998 60.8C48.2998 59.7333 47.9665 58.8 47.4998 58C47.3665 57.8 47.2331 57.6333 47.0998 57.5C46.9665 57.3 46.8331 57.1333 46.6998 57C46.5665 56.8 46.4331 56.6333 46.2998 56.5C46.1665 56.3667 45.9998 56.2334 45.7998 56.1C45.6665 55.9667 45.4998 55.8333 45.2998 55.7C45.1665 55.6333 44.9998 55.5333 44.7998 55.4C44.5998 55.3333 44.3998 55.2334 44.1998 55.1C44.0665 55.0334 43.8998 54.9667 43.6998 54.9L43.0998 54.7C42.8998 54.6333 42.6998 54.6 42.4998 54.6L41.8998 54.4C41.7665 54.4 41.5998 54.3667 41.3998 54.3H40.7998C40.5998 54.3 40.3998 54.2667 40.1998 54.2H38.9998L36.7998 54.4C36.1331 54.5333 35.5665 54.6667 35.0998 54.8C34.0331 55.1333 32.9998 55.4333 31.9998 55.7C31.4665 55.9 30.9665 56.0667 30.4998 56.2C30.0331 56.4 29.5665 56.5667 29.0998 56.7L27.6998 57.3C27.2331 57.4333 26.7665 57.6 26.2998 57.8L23.4998 59C22.6331 59.4667 21.7331 59.9333 20.7998 60.4C19.7998 60.9 0.299805 22.1 0.299805 22.1Z" fill="white"/>
</svg>
